<svg xmlns="http://www.w3.org/2000/svg" viewBox="0 0 64 64" role="img" aria-label="Hemisphere">
  <rect width="64" height="64" rx="14" fill="#07080a"/>
  <path d="M12 34c0-12.15 8.85-22 19.77-22C44.6 12 52 22.35 52 32c0 10.82-8.68 20-20.14 20C20.72 52 12 44.08 12 34Z" fill="none" stroke="#f4f0e8" stroke-width="3"/>
  <path d="M16 35h36M31 12c5.1 5.3 7.65 11.92 7.65 19.85 0 8.18-2.56 14.9-7.68 20.15M31 12c-5.07 5.3-7.6 11.92-7.6 19.85 0 8.18 2.53 14.9 7.6 20.15" fill="none" stroke="#7dd3fc" stroke-width="2"/>
  <circle cx="43" cy="24" r="3" fill="#f5c56b"/>
</svg>
