<svg xmlns="http://www.w3.org/2000/svg" viewBox="0 0 64 64" role="img" aria-label="Hemisphere Dot">
  <rect width="64" height="64" rx="14" fill="#f4f0e8"/>
  <g fill="#07080a">
    <circle cx="32" cy="12" r="1.15"/>
    <circle cx="24" cy="14" r="1.15"/>
    <circle cx="28" cy="14" r="1.35"/>
    <circle cx="32" cy="14" r="1.45"/>
    <circle cx="36" cy="14" r="1.35"/>
    <circle cx="40" cy="14" r="1.15"/>
    <circle cx="20" cy="18" r="1.15"/>
    <circle cx="24" cy="18" r="1.45"/>
    <circle cx="28" cy="18" r="1.65"/>
    <circle cx="32" cy="18" r="1.75"/>
    <circle cx="36" cy="18" r="1.65"/>
    <circle cx="40" cy="18" r="1.45"/>
    <circle cx="44" cy="18" r="1.15"/>
    <circle cx="17" cy="22" r="1.1"/>
    <circle cx="21" cy="22" r="1.5"/>
    <circle cx="25" cy="22" r="1.8"/>
    <circle cx="29" cy="22" r="2"/>
    <circle cx="33" cy="22" r="2.05"/>
    <circle cx="37" cy="22" r="1.9"/>
    <circle cx="41" cy="22" r="1.6"/>
    <circle cx="45" cy="22" r="1.25"/>
    <circle cx="48" cy="22" r="1"/>
    <circle cx="15" cy="26" r="1.05"/>
    <circle cx="19" cy="26" r="1.5"/>
    <circle cx="23" cy="26" r="1.85"/>
    <circle cx="27" cy="26" r="2.1"/>
    <circle cx="31" cy="26" r="2.25"/>
    <circle cx="35" cy="26" r="2.15"/>
    <circle cx="39" cy="26" r="1.95"/>
    <circle cx="43" cy="26" r="1.65"/>
    <circle cx="47" cy="26" r="1.25"/>
    <circle cx="50" cy="26" r="1"/>
    <circle cx="14" cy="30" r="1.1"/>
    <circle cx="18" cy="30" r="1.55"/>
    <circle cx="22" cy="30" r="1.95"/>
    <circle cx="26" cy="30" r="2.2"/>
    <circle cx="30" cy="30" r="2.4"/>
    <circle cx="34" cy="30" r="2.35"/>
    <circle cx="38" cy="30" r="2.1"/>
    <circle cx="42" cy="30" r="1.8"/>
    <circle cx="46" cy="30" r="1.4"/>
    <circle cx="50" cy="30" r="1.05"/>
    <circle cx="14" cy="34" r="1.05"/>
    <circle cx="18" cy="34" r="1.5"/>
    <circle cx="22" cy="34" r="1.9"/>
    <circle cx="26" cy="34" r="2.15"/>
    <circle cx="30" cy="34" r="2.3"/>
    <circle cx="34" cy="34" r="2.25"/>
    <circle cx="38" cy="34" r="2"/>
    <circle cx="42" cy="34" r="1.7"/>
    <circle cx="46" cy="34" r="1.35"/>
    <circle cx="50" cy="34" r="1"/>
    <circle cx="15" cy="38" r="1"/>
    <circle cx="19" cy="38" r="1.4"/>
    <circle cx="23" cy="38" r="1.75"/>
    <circle cx="27" cy="38" r="2"/>
    <circle cx="31" cy="38" r="2.1"/>
    <circle cx="35" cy="38" r="2"/>
    <circle cx="39" cy="38" r="1.8"/>
    <circle cx="43" cy="38" r="1.5"/>
    <circle cx="47" cy="38" r="1.15"/>
    <circle cx="17" cy="42" r="1"/>
    <circle cx="21" cy="42" r="1.3"/>
    <circle cx="25" cy="42" r="1.55"/>
    <circle cx="29" cy="42" r="1.75"/>
    <circle cx="33" cy="42" r="1.8"/>
    <circle cx="37" cy="42" r="1.65"/>
    <circle cx="41" cy="42" r="1.4"/>
    <circle cx="45" cy="42" r="1.1"/>
    <circle cx="20" cy="46" r="0.95"/>
    <circle cx="24" cy="46" r="1.15"/>
    <circle cx="28" cy="46" r="1.3"/>
    <circle cx="32" cy="46" r="1.4"/>
    <circle cx="36" cy="46" r="1.3"/>
    <circle cx="40" cy="46" r="1.1"/>
    <circle cx="44" cy="46" r="0.9"/>
    <circle cx="24" cy="50" r="0.8"/>
    <circle cx="28" cy="50" r="0.95"/>
    <circle cx="32" cy="50" r="1"/>
    <circle cx="36" cy="50" r="0.95"/>
    <circle cx="40" cy="50" r="0.8"/>
    <circle cx="32" cy="53" r="0.7"/>
  </g>
</svg>
