<svg xmlns="http://www.w3.org/2000/svg" viewBox="0 0 1200 820" role="img" aria-label="">
  <defs>
    <radialGradient id="glow" cx="54%" cy="45%" r="52%">
      <stop offset="0" stop-color="#f4f0e8" stop-opacity="0.22"/>
      <stop offset="0.46" stop-color="#7dd3fc" stop-opacity="0.12"/>
      <stop offset="1" stop-color="#07080a" stop-opacity="0"/>
    </radialGradient>
    <linearGradient id="line" x1="0" x2="1" y1="0" y2="1">
      <stop offset="0" stop-color="#f4f0e8" stop-opacity="0.72"/>
      <stop offset="1" stop-color="#7dd3fc" stop-opacity="0.24"/>
    </linearGradient>
    <pattern id="grid" width="42" height="42" patternUnits="userSpaceOnUse">
      <path d="M42 0H0v42" fill="none" stroke="#f4f0e8" stroke-opacity="0.08" stroke-width="1"/>
    </pattern>
    <filter id="softNoise">
      <feTurbulence type="fractalNoise" baseFrequency="0.82" numOctaves="2" stitchTiles="stitch"/>
      <feColorMatrix type="saturate" values="0"/>
      <feComponentTransfer>
        <feFuncA type="table" tableValues="0 0.12"/>
      </feComponentTransfer>
    </filter>
  </defs>
  <rect width="1200" height="820" fill="none"/>
  <rect x="120" y="70" width="920" height="650" fill="url(#grid)" opacity="0.7"/>
  <rect width="1200" height="820" fill="url(#glow)"/>
  <rect width="1200" height="820" filter="url(#softNoise)" opacity="0.22"/>
  <g fill="none" stroke="url(#line)" stroke-linecap="round">
    <ellipse cx="620" cy="390" rx="260" ry="260" stroke-width="1.4" opacity="0.72"/>
    <ellipse cx="620" cy="390" rx="260" ry="82" stroke-width="1.1" opacity="0.42"/>
    <ellipse cx="620" cy="390" rx="128" ry="260" stroke-width="1.1" opacity="0.38"/>
    <ellipse cx="620" cy="390" rx="218" ry="260" stroke-width="0.9" opacity="0.28"/>
    <ellipse cx="620" cy="390" rx="260" ry="186" stroke-width="0.9" opacity="0.24"/>
    <path d="M236 434c174-172 366-246 576-222 76 9 143 29 202 60" stroke-width="1.2" opacity="0.5"/>
    <path d="M214 508c166-92 342-131 528-116 126 10 236 45 330 104" stroke-width="1" opacity="0.32"/>
    <path d="M392 216 830 654" stroke-width="1" opacity="0.18"/>
  </g>
  <g fill="#f4f0e8">
    <circle cx="826" cy="218" r="5" opacity="0.9"/>
    <circle cx="620" cy="390" r="3.5" opacity="0.45"/>
    <circle cx="236" cy="434" r="2.5" opacity="0.42"/>
  </g>
</svg>
